<?xml version="1.0" encoding="UTF-8"?>
<svg id="Layer_1" data-name="Layer 1" xmlns="http://www.w3.org/2000/svg" viewBox="0 0 590 590">
  <defs>
    <style>
      .cls-1 {
        fill: #2fac66;
      }
    </style>
  </defs>
  <path class="cls-1" d="M295,590c-78.8,0-152.88-30.69-208.6-86.4C30.69,447.88,0,373.8,0,295,0,184.99,60.55,84.85,158.03,33.66c4.65-2.44,10.24-2.27,14.73,.44,4.5,2.72,7.24,7.59,7.24,12.84v248.06c0,63.41,51.59,115,115,115h60c8.28,0,15,6.72,15,15s-6.72,15-15,15h-60c-79.95,0-145-65.05-145-145V73.13C75.4,121.85,30,204.73,30,295c0,146.12,118.88,265,265,265,19.15,0,38.27-2.05,56.8-6.1,8.09-1.76,16.09,3.36,17.85,11.46,1.77,8.09-3.36,16.09-11.46,17.85-20.63,4.5-41.9,6.79-63.2,6.79Zm130-31.94c-2.69,0-5.38-.72-7.76-2.16-4.49-2.72-7.24-7.59-7.24-12.84v-98.06c0-63.41-51.59-115-115-115-8.28,0-15-6.72-15-15s6.72-15,15-15c46.79,0,88.47,22.27,115,56.78v-61.78c0-63.41-51.59-115-115-115h-60c-8.28,0-15-6.72-15-15s6.72-15,15-15h60c79.95,0,145,65.05,145,145v221.87c74.6-48.72,120-131.6,120-221.87,0-146.12-118.88-265-265-265-19.15,0-38.27,2.05-56.8,6.1-8.09,1.77-16.09-3.36-17.85-11.46-1.77-8.09,3.36-16.09,11.46-17.85,20.63-4.5,41.9-6.79,63.2-6.79,78.8,0,152.88,30.69,208.6,86.4,55.72,55.72,86.4,129.8,86.4,208.6,0,110.01-60.55,210.15-158.03,261.34-2.19,1.15-4.58,1.72-6.97,1.72Z"/>
</svg>